<?xml version="1.0" standalone="no"?>
<!DOCTYPE svg PUBLIC "-//W3C//DTD SVG 20010904//EN"
 "http://www.w3.org/TR/2001/REC-SVG-20010904/DTD/svg10.dtd">
<svg version="1.0" xmlns="http://www.w3.org/2000/svg"
 width="225.000000pt" height="225.000000pt" viewBox="0 0 225.000000 225.000000"
 preserveAspectRatio="xMidYMid meet">

<g transform="translate(0.000000,225.000000) scale(0.100000,-0.100000)"
fill="#000000" stroke="none">
<path d="M60 2196 c0 -19 533 -2132 539 -2139 6 -5 784 742 1574 1512 l27 26
-1057 299 c-582 165 -1064 301 -1070 304 -7 2 -13 1 -13 -2z m282 -97 c126
-35 228 -66 228 -69 0 -3 -81 -83 -180 -178 l-179 -173 -10 38 c-23 88 -111
443 -111 448 0 4 6 5 13 2 6 -2 114 -33 239 -68z m521 -148 l238 -68 -176
-171 c-96 -95 -179 -172 -183 -172 -4 0 -34 108 -68 240 -33 132 -58 240 -55
240 3 -1 113 -31 244 -69z m-209 -183 c31 -125 56 -231 56 -236 0 -7 -159 35
-430 114 l-54 16 179 173 c99 95 183 170 186 167 3 -4 32 -109 63 -234z m744
32 c122 -35 222 -67 222 -70 0 -3 -80 -83 -179 -178 l-179 -171 -56 227 c-31
125 -59 236 -63 246 -4 15 -1 18 13 14 11 -3 119 -34 242 -68z m-218 -182 c33
-128 57 -234 55 -237 -5 -4 -442 117 -463 128 -9 5 43 62 164 180 97 95 178
170 181 167 3 -2 31 -109 63 -238z m748 32 c122 -35 221 -66 221 -69 -4 -18
-351 -343 -358 -335 -7 8 -121 451 -121 470 0 3 8 4 18 2 9 -3 117 -34 240
-68z m-220 -180 c33 -132 56 -240 51 -240 -5 0 -115 30 -245 67 l-236 66 178
173 c99 95 182 173 185 173 4 1 34 -107 67 -239z m-1238 99 c124 -35 227 -64
229 -66 6 -5 -97 -109 -240 -244 l-117 -109 -56 228 c-31 125 -59 236 -63 246
-4 13 -1 17 8 14 8 -3 115 -34 239 -69z m532 -150 c126 -35 227 -67 225 -71
-1 -3 -82 -83 -179 -178 l-177 -171 -10 38 c-23 88 -111 443 -111 448 0 4 6 5
13 2 6 -2 114 -33 239 -68z m-216 -179 c48 -188 59 -240 47 -240 -8 0 -94 23
-191 50 -97 28 -200 57 -228 65 l-51 15 176 175 c97 96 178 175 181 175 3 0
33 -108 66 -240z m737 31 l238 -68 -176 -171 c-97 -95 -179 -172 -184 -172 -4
0 -35 108 -68 240 -34 132 -58 240 -55 240 4 -1 114 -31 245 -69z m-209 -185
c31 -126 54 -231 52 -234 -5 -4 -315 80 -445 120 l-35 11 180 172 c98 95 182
170 185 167 3 -4 32 -110 63 -236z m-480 -117 c-2 -9 -354 -352 -357 -348 -6
6 -117 457 -117 472 0 10 64 -4 238 -53 130 -37 237 -69 236 -71z m297 -80
c123 -34 226 -64 228 -66 6 -5 -59 -71 -220 -224 l-137 -129 -56 228 c-31 125
-59 236 -63 246 -4 14 -1 18 10 13 8 -3 115 -34 238 -68z m-206 -198 c31 -123
54 -225 53 -226 -5 -4 -466 129 -473 136 -3 4 74 83 172 178 144 138 179 167
185 153 4 -9 33 -118 63 -241z m-135 -198 c91 -25 169 -49 173 -53 4 -4 -73
-84 -172 -179 l-180 -172 -10 38 c-20 75 -111 442 -111 447 0 2 30 -4 68 -15
37 -11 141 -40 232 -66z"/>
</g>
</svg>
