<svg xmlns="http://www.w3.org/2000/svg" width="631" height="631" viewBox="0 0 631 631" version="1.1"><path d="M 280.500 1.633 C 224.103 7.754, 171.400 28.848, 124.076 64.243 C 105.228 78.339, 77.011 106.594, 62.900 125.500 C 52.746 139.104, 39.470 160.159, 33.178 172.639 C 23.520 191.796, 13.910 217.623, 8.522 238.901 C 2.456 262.857, 0.768 276.488, 0.253 305.653 C -0.041 322.323, 0.216 337.380, 0.918 344.653 C 6.175 399.065, 24.093 448.699, 55.032 494.548 C 73.189 521.455, 103.288 552.163, 130.830 571.879 C 185.514 611.023, 247.700 630.979, 315 630.979 C 354.843 630.979, 389.802 624.697, 426.962 610.859 C 524.934 574.377, 600.581 487.594, 623.506 385.381 C 626.551 371.803, 629.989 349.485, 629.995 343.250 C 629.998 340.913, 630.450 339, 631 339 C 631.647 339, 631.936 329.370, 631.820 311.750 C 631.711 295.312, 631.386 287.476, 631 292 C 630.371 299.377, 630.357 299.407, 630.180 293.801 C 630.081 290.667, 629.317 282.792, 628.482 276.301 C 618.545 199.036, 581.477 128.866, 524.025 78.560 C 472.749 33.663, 412.379 7.635, 344.144 1.006 C 329.772 -0.390, 296.085 -0.058, 280.500 1.633 M 290.500 45.079 C 244.710 49.732, 203.174 64.489, 165.500 89.489 C 107.056 128.273, 64.567 189.415, 49.560 256.328 C 44.224 280.116, 43.573 286.633, 43.543 316.500 C 43.513 346.503, 44.352 355.092, 49.645 379 C 64.561 446.375, 106.962 507.747, 165.288 546.383 C 213.671 578.433, 266.872 593.490, 325.410 591.700 C 368.605 590.379, 407.345 580.220, 445 560.341 C 515.870 522.927, 567.649 454.882, 584.895 376.500 C 589.502 355.560, 590.473 345.533, 590.460 319 C 590.446 291.620, 589.321 280.374, 584.368 258.103 C 566.822 179.210, 513.761 110.580, 442.111 74.106 C 409.197 57.351, 379.375 48.673, 342.144 45.017 C 330.257 43.850, 302.267 43.883, 290.500 45.079 M 193.628 188.972 C 176.289 193.646, 161.975 205.287, 154.248 221 C 146.203 237.358, 146.674 230.124, 146.262 343.750 L 145.895 445 159.429 445 L 172.963 445 173.232 342.228 L 173.500 239.457 176.695 232.968 C 180.774 224.683, 187.750 217.719, 196 213.695 C 202.001 210.769, 203.268 210.528, 212.500 210.559 C 221.120 210.588, 223.259 210.949, 228 213.174 C 237.665 217.710, 245.863 226.394, 249.773 236.239 C 251.294 240.067, 251.523 248.376, 252.027 318 C 252.650 404.015, 252.351 400.172, 259.541 414.543 C 266.029 427.513, 275.324 436.647, 288.500 443.002 C 292.900 445.123, 299.322 447.402, 302.771 448.064 C 311.958 449.829, 331.902 448.771, 339.336 446.126 C 354.536 440.716, 367.133 429.659, 373.941 415.750 C 381.742 399.816, 381.347 404.627, 381.956 318 L 382.500 240.500 384.909 234.500 C 388.285 226.089, 398.253 216.175, 406.500 213.026 C 423.842 206.403, 442.432 211.387, 453.102 225.519 C 461.430 236.550, 461 230.089, 461 344.089 L 461 445 474.500 445 L 488 445 487.999 351.750 C 487.999 296.388, 487.586 254.153, 486.984 247.800 C 485.199 228.981, 479.630 216.645, 467.364 204.342 C 455.372 192.314, 441.542 187.042, 421.910 187.015 C 394.304 186.976, 373.504 199.737, 362.438 223.500 C 356.071 237.171, 356 238.211, 356 317.321 C 356 361.374, 355.612 390.790, 354.986 394.114 C 352.702 406.246, 344.424 417.206, 333.500 422.559 C 328.074 425.218, 326.541 425.500, 317.479 425.500 C 308.175 425.500, 306.981 425.265, 300.794 422.219 C 293.006 418.385, 286.439 411.631, 282.295 403.192 L 279.500 397.500 278.935 320.500 C 278.388 245.928, 278.303 243.257, 276.239 235.803 C 269.391 211.060, 253.165 194.637, 229.540 188.539 C 221.082 186.355, 202.506 186.580, 193.628 188.972 M 0.439 313 C 0.439 328.125, 0.578 334.313, 0.748 326.750 C 0.917 319.188, 0.917 306.813, 0.748 299.250 C 0.578 291.688, 0.439 297.875, 0.439 313" stroke="none" fill="#5d1b14" fill-rule="evenodd"/><path d="M 290.500 45.079 C 244.710 49.732, 203.174 64.489, 165.500 89.489 C 107.056 128.273, 64.567 189.415, 49.560 256.328 C 44.224 280.116, 43.573 286.633, 43.543 316.500 C 43.513 346.503, 44.352 355.092, 49.645 379 C 64.561 446.375, 106.962 507.747, 165.288 546.383 C 213.671 578.433, 266.872 593.490, 325.410 591.700 C 368.605 590.379, 407.345 580.220, 445 560.341 C 515.870 522.927, 567.649 454.882, 584.895 376.500 C 589.502 355.560, 590.473 345.533, 590.460 319 C 590.446 291.620, 589.321 280.374, 584.368 258.103 C 566.822 179.210, 513.761 110.580, 442.111 74.106 C 409.197 57.351, 379.375 48.673, 342.144 45.017 C 330.257 43.850, 302.267 43.883, 290.500 45.079 M 193.628 188.972 C 176.289 193.646, 161.975 205.287, 154.248 221 C 146.203 237.358, 146.674 230.124, 146.262 343.750 L 145.895 445 159.429 445 L 172.963 445 173.232 342.228 L 173.500 239.457 176.695 232.968 C 180.774 224.683, 187.750 217.719, 196 213.695 C 202.001 210.769, 203.268 210.528, 212.500 210.559 C 221.120 210.588, 223.259 210.949, 228 213.174 C 237.665 217.710, 245.863 226.394, 249.773 236.239 C 251.294 240.067, 251.523 248.376, 252.027 318 C 252.650 404.015, 252.351 400.172, 259.541 414.543 C 266.029 427.513, 275.324 436.647, 288.500 443.002 C 292.900 445.123, 299.322 447.402, 302.771 448.064 C 311.958 449.829, 331.902 448.771, 339.336 446.126 C 354.536 440.716, 367.133 429.659, 373.941 415.750 C 381.742 399.816, 381.347 404.627, 381.956 318 L 382.500 240.500 384.909 234.500 C 388.285 226.089, 398.253 216.175, 406.500 213.026 C 423.842 206.403, 442.432 211.387, 453.102 225.519 C 461.430 236.550, 461 230.089, 461 344.089 L 461 445 474.500 445 L 488 445 487.999 351.750 C 487.999 296.388, 487.586 254.153, 486.984 247.800 C 485.199 228.981, 479.630 216.645, 467.364 204.342 C 455.372 192.314, 441.542 187.042, 421.910 187.015 C 394.304 186.976, 373.504 199.737, 362.438 223.500 C 356.071 237.171, 356 238.211, 356 317.321 C 356 361.374, 355.612 390.790, 354.986 394.114 C 352.702 406.246, 344.424 417.206, 333.500 422.559 C 328.074 425.218, 326.541 425.500, 317.479 425.500 C 308.175 425.500, 306.981 425.265, 300.794 422.219 C 293.006 418.385, 286.439 411.631, 282.295 403.192 L 279.500 397.500 278.935 320.500 C 278.388 245.928, 278.303 243.257, 276.239 235.803 C 269.391 211.060, 253.165 194.637, 229.540 188.539 C 221.082 186.355, 202.506 186.580, 193.628 188.972" stroke="none" fill="#eb1404" fill-rule="evenodd"/></svg>